# xmcd CD database file
#
# Track frame offsets:
#	150
#	11850
#	24863
#	40388
#	51038
#	63713
#	74812
#	88726
#	100162
#	115276
#	128850
#	144300
#	165403
#
# Disc length: 3694 seconds
#
# Revision: 0
# Processed by: cddbd v1.5.2PL0 Copyright (c) Steve Scherf et al.
# Submitted via: CDex 1.51
#
DISCID=b60e6c0d
DTITLE=James Hand - Shadow in the Sand
DYEAR=2009
DGENRE=Country
TTITLE0=Don't Want Me To
TTITLE1=Mona Lisa
TTITLE2=Just a Heart
TTITLE3=The Parakeet
TTITLE4=Floor to Crawl
TTITLE5=What Little I Got Left
TTITLE6=The Pain of Loving You
TTITLE7=Ain't a Goin'
TTITLE8=Midnight Run
TTITLE9=Leavin' For Good
TTITLE10=Don't Depend On Me
TTITLE11=Men Like Me Can Fly
TTITLE12=Data Track
EXTD=YEAR: 2009
EXTT0=
EXTT1=
EXTT2=
EXTT3=
EXTT4=
EXTT5=
EXTT6=
EXTT7=
EXTT8=
EXTT9=
EXTT10=
EXTT11=
EXTT12=
PLAYORDER=
